<?xml version="1.0" encoding="UTF-8" standalone="no"?>
<!-- Generator: Adobe Illustrator 22.1.0, SVG Export Plug-In . SVG Version: 6.00 Build 0)  -->

<svg
   xmlns:dc="http://purl.org/dc/elements/1.1/"
   xmlns:cc="http://creativecommons.org/ns#"
   xmlns:rdf="http://www.w3.org/1999/02/22-rdf-syntax-ns#"
   xmlns:svg="http://www.w3.org/2000/svg"
   xmlns="http://www.w3.org/2000/svg"
   xmlns:sodipodi="http://sodipodi.sourceforge.net/DTD/sodipodi-0.dtd"
   xmlns:inkscape="http://www.inkscape.org/namespaces/inkscape"
   version="1.1"
   x="0px"
   y="0px"
   width="600"
   height="360"
   viewBox="0 0 600 359.99999"
   xml:space="preserve"
   id="svg11"
   sodipodi:docname="thunderbird-watermark.svg"
   inkscape:export-filename="/home/anxhelo/photon/images/product-identity-assets/thunderbird-watermark.png"
   inkscape:export-xdpi="96"
   inkscape:export-ydpi="96"
   inkscape:version="0.92.3 (2405546, 2018-03-11)"><metadata
   id="metadata17"><rdf:RDF><cc:Work
       rdf:about=""><dc:format>image/svg+xml</dc:format><dc:type
         rdf:resource="http://purl.org/dc/dcmitype/StillImage" /><dc:title></dc:title></cc:Work></rdf:RDF></metadata><defs
   id="defs15" /><sodipodi:namedview
   pagecolor="#ffffff"
   bordercolor="#666666"
   borderopacity="1"
   objecttolerance="10"
   gridtolerance="10"
   guidetolerance="10"
   inkscape:pageopacity="0"
   inkscape:pageshadow="2"
   inkscape:window-width="1366"
   inkscape:window-height="715"
   id="namedview13"
   showgrid="false"
   inkscape:zoom="0.9379968"
   inkscape:cx="307.75413"
   inkscape:cy="124.50791"
   inkscape:window-x="0"
   inkscape:window-y="0"
   inkscape:window-maximized="1"
   inkscape:current-layer="svg11" />
<style
   type="text/css"
   id="style2">
	.st0{display:none;fill:#808080;}
	.st1{fill:#808080;}
</style>
<g
   id="Wings_Back"
   transform="translate(0,234.2)">
	<path
   class="st0"
   d="m 270.2,50.9 c -7.5,-4.9 -17.1,-6.5 -22.4,-7.1 -5.7,-0.6 -10.6,-0.5 -14.9,0.1 -0.4,0 -0.7,0 -1.1,0 -0.3,0 -0.6,0 -0.8,0 0.1,-0.1 0.2,-0.2 0.2,-0.2 0,0 -0.2,0 -0.7,0.2 -1.4,0 -2.8,0.1 -4.2,0.2 1.9,-2.1 3.5,-3.2 3.5,-3.2 0,0 -1.9,0.3 -5.3,3.4 -1.6,0.1 -3.2,0.3 -4.8,0.6 3.6,-4.9 7.3,-6.9 7.3,-6.9 0,0 -4.5,-0.9 -11.7,6.2 -0.6,0.6 -1.1,1.2 -1.7,1.9 -20.7,5 -35.6,18.4 -35.6,34.2 0,3.1 -0.9,6.5 0.1,9.9 -0.4,5.4 0.5,20.2 0.5,20.2 0,0 5.6,30.4 27.2,35.7 0.3,0.1 -4.5,-7.6 -6.7,-16.8 4.2,4.3 9.2,7.6 14.8,8.2 0.7,0.1 -3.2,-4.5 -6.6,-10 l 49.1,16.5 c 25.7,-11 22.7,-10 28.2,-16 12.1,-13.1 13.8,-20.6 10.8,-42.6 -2.1,-14.9 -13.1,-29.6 -25.2,-34.5 z"
   id="path4"
   inkscape:connector-curvature="0"
   style="display:none;fill:#808080" />
</g>
<g
   id="Mail"
   transform="translate(0,234.2)">
</g>
<g
   id="Layer_1"
   transform="matrix(1.6242051,0,0,1.6242051,196.01612,77.767554)">
	<path
   class="st1"
   d="m 126.6,53.5 c -1.2,-6.4 -3.7,-12.6 -7.1,-18.2 -0.3,-0.5 -0.6,-1.1 -1,-1.6 0,0 0,0 0,0 -0.7,-1.1 -1.5,-2.2 -2.3,-3.3 -7.2,-10.1 -12.9,-13.5 -14,-14.1 -1,-0.7 -2,-1.4 -3,-2 C 89.9,8.5 83.9,7.7 83.9,7.7 c 0,0 0,0 0,0 C 79.6,5.9 75.4,4.9 72.3,4.4 65.6,3.6 60,3.7 55.1,4.4 c 0.8,-1.4 1.5,-1.9 1.7,-2 0.1,0 0.1,0 0.1,0 0,0 0,0 0,0 0,0 0,0 0,0 0,0 -0.1,0 -0.1,0 C 54.4,2.6 51.5,4.2 48.9,5.8 50.7,2.3 54.5,0.3 55,0 55,0 55.1,0 55.1,0 52.1,-0.2 43.6,1.7 36.3,9.8 13.6,19.3 0,40.1 0,62.8 0,80 6.6,92.2 13.9,100.4 l 0.1,0.2 c 6.9,7.5 14.5,11.5 18.1,12.6 0.5,0.2 1,0.3 1.4,0.3 -0.1,0 -0.1,-0.1 -0.2,-0.1 0.1,-0.3 -4.6,-7.8 -6.7,-16.8 4.2,4.3 9.2,7.6 14.8,8.2 0.6,0.1 -2,-3.1 -4.8,-7.3 l 3.8,1.3 v 0 l 41.7,13.9 c -4.1,4.2 -9.6,8.3 -17.1,11.9 0,0 16.8,-1.4 25.1,-10.7 -3.4,7.8 -12.7,12 -12.7,12 6.8,-1 24.8,-6.3 36.2,-20.6 13,-16.2 16.9,-31.4 13,-51.8 z M 23.8,31.9 c 0,0 0,0 0,0 v 0 c 0,0 0,0 0,0 z m 69.6,59.5 c -1.3,6.3 -4,13.3 -10.1,20 L 9.6,86.9 v 0 C 7.5,80.2 6.5,72.4 7.1,63.3 c 1.3,2.4 5.2,4.4 7.6,4.5 C 9.1,55.3 11.3,46.7 15.5,41 c 1.5,2.2 3.4,5 5.5,8.1 0,-0.2 0,-0.4 0,-0.6 0.1,-0.8 0.2,-1.4 0.4,-2 -1.9,-2.8 -3.5,-5.2 -4.7,-6.9 2.3,-2.6 4.9,-4.5 7.2,-5.8 0.1,1.1 0.3,2.1 0.6,3.3 0.4,1.7 0.5,4.2 0.3,6.2 0,0 0,-0.1 0,-0.1 0,0.4 -0.1,0.8 -0.2,1.2 -0.1,0.4 -1.2,1.5 -1.5,4.4 -0.3,3.1 0.8,4.8 1.9,6.1 1.3,-1.2 3.7,-4.2 8.1,-5.9 4.4,-1.8 7.3,-4.4 12.9,-7.2 3.3,-1.7 6.8,-1.5 11.2,-1.3 7.9,1.4 18.3,4.2 28,4.7 2.2,5.2 3.1,12.7 3.1,12.9 0,0.7 0.1,1.3 0.1,1.9 -17.2,6.5 -37.4,13.9 -45.9,16.1 -0.7,0.2 -8.1,-10.5 -15,-20.7 -0.1,0.2 -0.3,0.3 -0.4,0.4 -0.2,0.2 -0.4,0.4 -0.5,0.6 H 26 c 7.4,10.9 15.3,22.2 16.1,22.2 0,0 0,0 0,0 7.5,-2.7 29.9,-10.4 46.2,-16 -0.1,12.3 -3.1,16.9 -3.1,16.9 0,0 4.1,-1.6 8.3,-5.8 0,3.4 -0.9,12.2 -8,20.7 0,0 3.7,-1 7.9,-3 z"
   id="path8"
   inkscape:connector-curvature="0"
   style="fill:#808080" />
</g>
</svg>