<?xml version="1.0" encoding="UTF-8" standalone="no"?>
<!-- Created with Inkscape (http://www.inkscape.org/) -->

<svg
   xmlns:dc="http://purl.org/dc/elements/1.1/"
   xmlns:cc="http://creativecommons.org/ns#"
   xmlns:rdf="http://www.w3.org/1999/02/22-rdf-syntax-ns#"
   xmlns:svg="http://www.w3.org/2000/svg"
   xmlns="http://www.w3.org/2000/svg"
   xmlns:sodipodi="http://sodipodi.sourceforge.net/DTD/sodipodi-0.dtd"
   xmlns:inkscape="http://www.inkscape.org/namespaces/inkscape"
   width="600"
   height="360"
   viewBox="0 0 158.75001 95.249994"
   version="1.1"
   id="svg8"
   inkscape:version="0.92.3 (2405546, 2018-03-11)"
   sodipodi:docname="thunderbird-wordmark-vertical.svg"
   inkscape:export-filename="/home/anxhelo/thunderbird-photon/images/product-identity-assets/thunderbird-wordmark-vertical.png"
   inkscape:export-xdpi="96"
   inkscape:export-ydpi="96">
  <defs
     id="defs2">
    <filter
       height="6.6290002"
       width="14.927"
       y="18.355"
       x="162.67999"
       filterUnits="userSpaceOnUse"
       id="Adobe_OpacityMaskFilter">
      <feColorMatrix
         id="feColorMatrix950"
         values="1 0 0 0 0  0 1 0 0 0  0 0 1 0 0  0 0 0 1 0"
         type="matrix" />
    </filter>
    <filter
       height="4.215"
       width="9.491"
       y="11.67"
       x="103.433"
       filterUnits="userSpaceOnUse"
       id="Adobe_OpacityMaskFilter-9">
      <feColorMatrix
         id="feColorMatrix1308"
         values="1 0 0 0 0  0 1 0 0 0  0 0 1 0 0  0 0 0 1 0"
         type="matrix" />
    </filter>
    <filter
       height="6.629"
       width="14.927"
       y="18.355"
       x="252.586"
       filterUnits="userSpaceOnUse"
       id="Adobe_OpacityMaskFilter-0">
      <feColorMatrix
         id="feColorMatrix1720"
         values="1 0 0 0 0  0 1 0 0 0  0 0 1 0 0  0 0 0 1 0"
         type="matrix" />
    </filter>
  </defs>
  <sodipodi:namedview
     id="base"
     pagecolor="#ffffff"
     bordercolor="#666666"
     borderopacity="1.0"
     inkscape:pageopacity="0"
     inkscape:pageshadow="2"
     inkscape:zoom="0.74199837"
     inkscape:cx="-11.242135"
     inkscape:cy="146.45918"
     inkscape:document-units="px"
     inkscape:current-layer="layer1"
     inkscape:document-rotation="0"
     showgrid="false"
     borderlayer="true"
     inkscape:showpageshadow="true"
     units="px"
     inkscape:pagecheckerboard="false"
     showguides="true"
     inkscape:window-width="1366"
     inkscape:window-height="715"
     inkscape:window-x="0"
     inkscape:window-y="0"
     inkscape:window-maximized="1"
     objecttolerance="10"
     guidetolerance="10"
     inkscape:snap-tangential="true"
     inkscape:snap-perpendicular="true"
     inkscape:snap-page="true">
    <inkscape:grid
       type="xygrid"
       id="grid10"
       dotted="false" />
  </sodipodi:namedview>
  <metadata
     id="metadata5">
    <rdf:RDF>
      <cc:Work
         rdf:about="">
        <dc:format>image/svg+xml</dc:format>
        <dc:type
           rdf:resource="http://purl.org/dc/dcmitype/StillImage" />
        <dc:title />
        <cc:license
           rdf:resource="" />
      </cc:Work>
    </rdf:RDF>
  </metadata>
  <g
     inkscape:label="Layer 1"
     inkscape:groupmode="layer"
     id="layer1"
     transform="translate(0,-201.75001)">
    <g
       id="g1073"
       transform="translate(-0.99939238,-2.2798751e-6)">
      <g
         transform="matrix(0.18904129,0,0,0.18904129,39.036141,216.49726)"
         id="g1812">
        <g
           id="g1616">
          <polygon
             style="fill:#363959"
             class="st0"
             points="40.159,297.252 41.084,289.759 0,289.759 0,297.252 15.991,297.252 15.991,346.857 24.627,346.857 24.627,297.252 "
             id="polygon1592" />
          <path
             style="fill:#363959"
             inkscape:connector-curvature="0"
             class="st0"
             d="m 66.937,301.996 c -4.841,0 -8.968,2.045 -12.285,6.084 v -23.186 l -8.391,0.911 v 61.052 h 8.391 v -30.909 c 1.468,-2.285 3.055,-4.075 4.719,-5.323 1.653,-1.241 3.567,-1.87 5.69,-1.87 2.091,0 3.698,0.584 4.776,1.736 1.085,1.162 1.635,3.229 1.635,6.144 v 30.222 h 8.39 v -31.283 c 0,-4.177 -1.152,-7.518 -3.425,-9.931 -2.28,-2.42 -5.477,-3.647 -9.5,-3.647 z"
             id="path1594" />
          <path
             style="fill:#363959"
             inkscape:connector-curvature="0"
             class="st0"
             d="m 116.101,333.972 c -2.879,4.715 -6.353,7.106 -10.327,7.106 -2.192,0 -3.78,-0.565 -4.72,-1.679 -0.959,-1.137 -1.446,-3.14 -1.446,-5.957 v -30.466 h -8.39 v 31.283 c 0,4.285 1.11,7.653 3.3,10.009 2.198,2.368 5.272,3.568 9.135,3.568 3.111,0 5.793,-0.638 7.972,-1.895 1.874,-1.082 3.578,-2.725 5.077,-4.896 l 0.496,5.812 h 7.294 v -43.882 h -8.391 z"
             id="path1596" />
          <path
             style="fill:#363959"
             inkscape:connector-curvature="0"
             class="st0"
             d="m 157.336,301.996 c -2.786,0 -5.373,0.679 -7.687,2.018 -1.978,1.143 -3.698,2.673 -5.128,4.555 l -0.575,-5.594 h -7.286 v 43.882 h 8.39 v -30.829 c 1.467,-2.337 3.054,-4.155 4.718,-5.403 1.654,-1.241 3.596,-1.87 5.773,-1.87 2.09,0 3.681,0.583 4.732,1.732 1.06,1.162 1.597,3.23 1.597,6.148 v 30.222 h 8.391 v -31.283 c 0,-4.176 -1.152,-7.517 -3.425,-9.931 -2.28,-2.42 -5.477,-3.647 -9.5,-3.647 z"
             id="path1598" />
          <path
             style="fill:#363959"
             inkscape:connector-curvature="0"
             class="st0"
             d="m 207.804,306.665 c -3.222,-3.099 -6.967,-4.669 -11.143,-4.669 -3.508,0 -6.618,1.005 -9.241,2.986 -2.612,1.973 -4.637,4.74 -6.019,8.226 -1.375,3.463 -2.071,7.471 -2.071,11.912 0,6.86 1.469,12.409 4.365,16.492 2.93,4.13 7.073,6.224 12.314,6.224 2.677,0 5.139,-0.638 7.319,-1.895 1.849,-1.067 3.454,-2.505 4.784,-4.283 l 0.641,5.198 h 7.443 v -61.129 l -8.391,-1.003 v 21.941 z m 0,7.51 v 20.755 c -1.459,2.011 -2.983,3.54 -4.53,4.546 -1.552,1.007 -3.447,1.519 -5.634,1.519 -3.019,0 -5.272,-1.266 -6.885,-3.87 -1.634,-2.634 -2.462,-6.727 -2.462,-12.168 0,-5.382 0.895,-9.473 2.66,-12.159 1.751,-2.666 4.152,-3.962 7.341,-3.962 1.921,0 3.67,0.46 5.2,1.366 1.511,0.899 2.961,2.235 4.31,3.973 z"
             id="path1600" />
          <path
             style="fill:#363959"
             inkscape:connector-curvature="0"
             class="st0"
             d="m 243.574,301.996 c -3.721,0 -7.006,1.017 -9.765,3.022 -2.748,2 -4.885,4.794 -6.348,8.306 -1.458,3.492 -2.197,7.544 -2.197,12.041 0,6.93 1.724,12.461 5.124,16.442 3.417,4 8.238,6.028 14.328,6.028 5.517,0 10.66,-1.844 15.285,-5.479 l 0.335,-0.263 -3.767,-5.18 -0.354,0.244 c -1.863,1.277 -3.667,2.219 -5.361,2.803 -1.685,0.579 -3.559,0.873 -5.568,0.873 -3.121,0 -5.703,-1.078 -7.672,-3.203 -1.917,-2.067 -3.073,-5.33 -3.437,-9.7 h 27.344 l 0.034,-0.406 c 0.109,-1.315 0.164,-2.617 0.164,-3.87 0,-6.709 -1.571,-12.046 -4.667,-15.862 -3.119,-3.846 -7.654,-5.796 -13.478,-5.796 z m -9.399,19.5 c 0.613,-8.517 3.745,-12.659 9.563,-12.659 3.21,0 5.644,1.067 7.235,3.169 1.619,2.143 2.44,5.32 2.44,9.443 v 0.047 z"
             id="path1602" />
          <path
             style="fill:#363959"
             inkscape:connector-curvature="0"
             class="st0"
             d="m 289.508,301.996 c -2.704,0 -5.105,0.858 -7.137,2.551 -1.634,1.362 -3.003,3.273 -4.084,5.697 l -0.611,-7.268 h -7.294 v 43.882 h 8.39 v -24.951 c 0.904,-4.022 2.16,-7.017 3.732,-8.904 1.558,-1.87 3.555,-2.778 6.105,-2.778 1.155,0 2.382,0.16 3.647,0.476 l 0.454,0.114 1.552,-8.214 -0.405,-0.101 c -1.333,-0.334 -2.796,-0.504 -4.349,-0.504 z"
             id="path1604" />
          <path
             style="fill:#363959"
             inkscape:connector-curvature="0"
             class="st0"
             d="m 319.532,301.996 c -4.71,0 -8.645,1.857 -11.715,5.523 v -22.794 l -8.39,1.003 v 61.129 h 7.43 l 0.645,-4.155 c 3.062,3.408 6.803,5.134 11.133,5.134 3.506,0 6.613,-0.976 9.236,-2.9 2.612,-1.917 4.638,-4.644 6.023,-8.106 1.375,-3.438 2.072,-7.459 2.072,-11.954 0,-7.132 -1.483,-12.779 -4.41,-16.783 -2.958,-4.046 -7.004,-6.097 -12.024,-6.097 z m -2.121,6.841 c 3.079,0 5.387,1.204 7.057,3.68 1.683,2.498 2.536,6.657 2.536,12.358 0,5.539 -0.92,9.666 -2.735,12.27 -1.805,2.591 -4.235,3.85 -7.429,3.85 -1.759,0 -3.451,-0.498 -5.029,-1.483 -1.559,-0.969 -2.903,-2.314 -3.993,-3.997 v -20.3 c 2.767,-4.232 5.994,-6.378 9.593,-6.378 z"
             id="path1606" />
          <rect
             style="fill:#363959"
             x="345.44299"
             y="302.97601"
             class="st0"
             width="8.3900003"
             height="43.882"
             id="rect1608" />
          <path
             style="fill:#363959"
             inkscape:connector-curvature="0"
             class="st0"
             d="m 349.556,282.334 c -1.637,0 -3.005,0.537 -4.066,1.597 -1.061,1.061 -1.598,2.402 -1.598,3.984 0,1.587 0.539,2.915 1.603,3.948 1.06,1.03 2.427,1.552 4.061,1.552 1.69,0 3.084,-0.522 4.143,-1.552 1.063,-1.033 1.603,-2.362 1.603,-3.948 0,-1.582 -0.537,-2.923 -1.598,-3.984 -1.061,-1.06 -2.456,-1.597 -4.148,-1.597 z"
             id="path1610" />
          <path
             style="fill:#363959"
             inkscape:connector-curvature="0"
             class="st0"
             d="m 385.128,301.996 c -2.704,0 -5.105,0.858 -7.137,2.551 -1.634,1.362 -3.003,3.273 -4.084,5.697 l -0.611,-7.268 h -7.294 v 43.882 h 8.39 v -24.951 c 0.904,-4.022 2.16,-7.017 3.732,-8.904 1.558,-1.87 3.555,-2.778 6.105,-2.778 1.155,0 2.382,0.16 3.647,0.476 l 0.454,0.114 1.552,-8.214 -0.405,-0.101 c -1.333,-0.334 -2.797,-0.504 -4.349,-0.504 z"
             id="path1612" />
          <path
             style="fill:#363959"
             inkscape:connector-curvature="0"
             class="st0"
             d="m 418.381,284.725 v 21.939 c -3.222,-3.099 -6.967,-4.669 -11.143,-4.669 -3.508,0 -6.618,1.005 -9.241,2.986 -2.612,1.973 -4.637,4.74 -6.019,8.226 -1.375,3.463 -2.071,7.471 -2.071,11.912 0,6.86 1.469,12.409 4.365,16.492 2.93,4.13 7.073,6.224 12.314,6.224 2.677,0 5.14,-0.638 7.319,-1.895 1.849,-1.067 3.454,-2.505 4.784,-4.283 l 0.641,5.198 h 7.443 v -61.129 z m 0,29.45 v 20.755 c -1.459,2.011 -2.983,3.54 -4.53,4.546 -1.552,1.007 -3.447,1.519 -5.634,1.519 -3.019,0 -5.272,-1.266 -6.885,-3.87 -1.634,-2.634 -2.462,-6.727 -2.462,-12.168 0,-5.382 0.895,-9.473 2.66,-12.159 1.751,-2.666 4.152,-3.962 7.341,-3.962 1.921,0 3.67,0.46 5.2,1.366 1.51,0.899 2.96,2.235 4.31,3.973 z"
             id="path1614" />
        </g>
        <g
           id="g1810">
          <g
             id="g1784">
            <linearGradient
               id="SVGID_1_"
               gradientUnits="userSpaceOnUse"
               x1="289.43909"
               y1="201.907"
               x2="129.58479"
               y2="42.0527">
              <stop
                 offset="0"
                 style="stop-color:#130036"
                 id="stop1618" />
              <stop
                 offset="0.2297"
                 style="stop-color:#18023B"
                 id="stop1620" />
              <stop
                 offset="0.5122"
                 style="stop-color:#26094A"
                 id="stop1622" />
              <stop
                 offset="0.8211"
                 style="stop-color:#3D1563"
                 id="stop1624" />
              <stop
                 offset="1"
                 style="stop-color:#4E1D75"
                 id="stop1626" />
            </linearGradient>
            <path
               style="fill:url(#SVGID_1_)"
               inkscape:connector-curvature="0"
               class="st1"
               d="M 278.794,35.492 C 264.293,26.02 245.748,22.954 235.513,21.883 c -10.954,-1.145 -20.468,-0.943 -28.836,0.285 -0.709,-0.009 -1.414,-0.037 -2.127,-0.037 -0.545,0 -1.08,0.023 -1.627,0.029 0.225,-0.275 0.381,-0.445 0.381,-0.445 0,0 -0.44,0.069 -1.304,0.46 -2.717,0.044 -5.421,0.138 -8.085,0.32 3.711,-4.068 6.751,-6.2 6.751,-6.2 0,0 -3.608,0.528 -10.192,6.496 -3.132,0.288 -6.221,0.67 -9.258,1.145 6.918,-9.362 14.155,-13.304 14.155,-13.304 0,0 -8.772,-1.786 -22.507,12.016 -1.149,1.155 -2.215,2.356 -3.246,3.572 -40.033,9.687 -68.683,35.538 -68.683,65.919 0,5.958 -1.829,12.511 0.143,19.054 -0.788,10.453 0.89,38.975 0.89,38.975 0,0 10.837,58.649 52.51,68.846 0.662,0.158 -8.707,-14.62 -12.851,-32.442 8.069,8.208 17.685,14.699 28.478,15.824 1.325,0.137 -6.165,-8.64 -12.725,-19.234 l 94.698,31.906 c 49.529,-21.274 43.763,-19.357 54.397,-30.875 23.428,-25.36 26.708,-39.75 20.806,-82.235 C 323.29,73.279 302.122,44.875 278.794,35.492 Z"
               id="path1629" />
            <polygon
               style="fill:#fbfbfb"
               class="st2"
               points="262.817,219.015 291.845,95.591 112.594,62.276 98.452,142.68 106.293,166.974 "
               id="polygon1631" />
            <g
               id="g1635">
              <path
                 style="fill:#999999"
                 inkscape:connector-curvature="0"
                 class="st3"
                 d="m 113.034,65.01 c 0.785,1.689 0.554,2.089 0.065,2.089 -0.22,0 -0.492,-0.081 -0.747,-0.161 -0.255,-0.081 -0.494,-0.161 -0.648,-0.161 -0.433,0 -0.189,0.639 2.263,3.72 3.468,4.406 54.399,81.293 57.182,81.293 0.015,0 0.028,-0.002 0.04,-0.006 23.71,-8.448 124.543,-43.058 124.543,-43.058 L 285.415,93.698 113.034,65.01"
                 id="path1633" />
            </g>
            <path
               style="fill:#f8f8f8"
               inkscape:connector-curvature="0"
               class="st4"
               d="m 114.513,63.121 c 0,0 0.76,3.932 4.281,8.284 3.5,4.392 50.51,75.571 52.869,74.944 30.795,-8.176 142.525,-51.674 142.525,-51.674 z"
               id="path1637" />
            <polygon
               style="fill:#999999"
               class="st3"
               points="108.474,167.703 109,171.178 258.882,221.012 257.227,217.161 "
               id="polygon1639" />
            <linearGradient
               id="SVGID_2_"
               gradientUnits="userSpaceOnUse"
               x1="100.149"
               y1="95.311302"
               x2="147.61011"
               y2="95.311302">
              <stop
                 offset="0"
                 style="stop-color:#3156A8"
                 id="stop1641" />
              <stop
                 offset="0.2474"
                 style="stop-color:#3351A4"
                 id="stop1643" />
              <stop
                 offset="0.5365"
                 style="stop-color:#3B4397"
                 id="stop1645" />
              <stop
                 offset="0.8453"
                 style="stop-color:#472C82"
                 id="stop1647" />
              <stop
                 offset="1"
                 style="stop-color:#4E1D75"
                 id="stop1649" />
            </linearGradient>
            <path
               style="fill:url(#SVGID_2_)"
               inkscape:connector-curvature="0"
               class="st5"
               d="m 147.61,59.795 c 0,0 -54.122,15.85 -29.288,71.033 0,0 -11.387,-10.426 -18.167,-23.757 -0.305,-0.596 11.301,-41.828 11.301,-41.828 z"
               id="path1652" />
            <radialGradient
               id="SVGID_3_"
               cx="148.9794"
               cy="113.9232"
               r="85.246597"
               gradientTransform="matrix(1,0,0,1.45,0,-51.2654)"
               gradientUnits="userSpaceOnUse">
              <stop
                 offset="0.1654"
                 style="stop-color:#14CDDA"
                 id="stop1654" />
              <stop
                 offset="0.5478"
                 style="stop-color:#2061BD"
                 id="stop1656" />
              <stop
                 offset="0.6546"
                 style="stop-color:#2658AC"
                 id="stop1658" />
              <stop
                 offset="0.864"
                 style="stop-color:#373F81"
                 id="stop1660" />
              <stop
                 offset="1"
                 style="stop-color:#432D62"
                 id="stop1662" />
            </radialGradient>
            <path
               style="fill:url(#SVGID_3_)"
               inkscape:connector-curvature="0"
               class="st6"
               d="m 118.322,130.828 c -4.707,-0.081 -12.269,-3.964 -14.722,-8.665 -3.066,51.098 17.782,80.939 50.88,96.853 -10.815,-1.239 -64.574,-29.608 -64.574,-97.875 0,-58.047 46.06,-109.932 118.142,-112.309 0.442,3.254 -35.736,11.414 -36.893,15.251 -1.796,5.972 -5.924,12.473 -9.406,17.684 -4.718,7.061 6.557,13.099 -1.729,15.001 -12.468,2.861 -29.098,1.277 -41.361,17.219 -18.434,23.964 -6.133,51.378 -0.337,56.841 z"
               id="path1665" />
            <g
               id="g1678">
              <linearGradient
                 id="SVGID_4_"
                 gradientUnits="userSpaceOnUse"
                 x1="134.4449"
                 y1="57.897499"
                 x2="281.4212"
                 y2="57.897499">
                <stop
                   offset="0"
                   style="stop-color:#2061BD"
                   id="stop1667" />
                <stop
                   offset="0.1846"
                   style="stop-color:#2B51AC"
                   id="stop1669" />
                <stop
                   offset="0.6826"
                   style="stop-color:#442C84"
                   id="stop1671" />
                <stop
                   offset="0.9409"
                   style="stop-color:#4E1D75"
                   id="stop1673" />
              </linearGradient>
              <path
                 style="fill:url(#SVGID_4_)"
                 inkscape:connector-curvature="0"
                 class="st7"
                 d="m 226.954,10.699 c -46.682,-3.582 -70.707,15.097 -86.13,36.817 -5.617,7.906 -5.002,15.166 -3.068,23.937 0.831,3.744 1.671,5.538 0.659,9.355 -0.558,2.106 -0.465,4.072 -1.158,5.314 -0.959,1.717 -2.18,3.594 -2.589,6.677 -1.022,7.699 1.703,10.151 3.406,12.741 2.426,-2.409 7.165,-8.079 15.71,-11.466 8.545,-3.387 14.167,-8.477 24.876,-13.941 14.632,-7.463 31.783,3.859 64.3,-6.796 10.006,-3.279 33.002,-37.344 38.461,-38.652 C 266.218,17.873 240.354,11.726 226.954,10.699 Z"
                 id="path1676" />
            </g>
            <path
               style="fill:#3f6499"
               inkscape:connector-curvature="0"
               class="st8"
               d="m 196.113,0.032 c 0,0 -8.335,4.026 -11.965,11.301 8.381,-4.225 13.246,-6.533 15.546,-6.808 0,0 -2.203,1.067 -4.935,6.87 4.83,-1.547 6.493,-2.522 7.819,-2.537 0,0 -0.385,0.61 -0.737,6.402 -7.417,-2.404 -21.693,0.397 -29.287,5.153 C 169.979,6.678 196.113,0.032 196.113,0.032 Z"
               id="path1680" />
            <linearGradient
               id="SVGID_5_"
               gradientUnits="userSpaceOnUse"
               x1="156.0798"
               y1="23.205601"
               x2="257.17041"
               y2="111.0823">
              <stop
                 offset="0.0202"
                 style="stop-color:#48A8E0"
                 id="stop1682" />
              <stop
                 offset="0.3883"
                 style="stop-color:#2061BD"
                 id="stop1684" />
              <stop
                 offset="0.4968"
                 style="stop-color:#2B51AC"
                 id="stop1686" />
              <stop
                 offset="0.7892"
                 style="stop-color:#442C84"
                 id="stop1688" />
              <stop
                 offset="0.9409"
                 style="stop-color:#4E1D75"
                 id="stop1690" />
            </linearGradient>
            <path
               style="fill:url(#SVGID_5_)"
               inkscape:connector-curvature="0"
               class="st9"
               d="m 229.286,8.63 c -14.309,-1.854 -26.271,-1.489 -36.44,0.471 3.198,-3.065 6.898,-4.575 6.898,-4.575 -4.795,0.424 -10.781,3.554 -15.917,6.868 -2.588,0.826 -5.054,1.758 -7.39,2.799 1.43,-1.885 3.094,-3.899 4.72,-5.445 6.039,-5.743 15.006,-8.715 15.006,-8.715 -7.654,-0.562 -33.267,5.995 -48.681,37.212 -2.526,3.077 -4.883,6.235 -7.129,9.398 -5.798,8.164 -5.162,15.658 -3.162,24.715 0.852,3.867 1.009,10.04 0.168,14.029 -0.168,0.799 -2.363,2.863 -2.926,8.428 -0.602,5.905 1.505,8.804 3.582,11.203 7.38,-10.792 14.661,-12.931 14.661,-12.931 10.331,-4.232 14.63,-8.753 25.688,-14.394 15.108,-7.709 67.939,17.45 101.512,6.448 10.332,-3.384 -3.977,-47.359 1.663,-48.709 C 265.841,18.073 243.045,10.413 229.286,8.63 Z"
               id="path1693" />
            <linearGradient
               id="SVGID_6_"
               gradientUnits="userSpaceOnUse"
               x1="109.5823"
               y1="337.41391"
               x2="307.74149"
               y2="43.630901">
              <stop
                 offset="0.3787"
                 style="stop-color:#3156A8"
                 id="stop1695" />
              <stop
                 offset="1"
                 style="stop-color:#4E1D75"
                 id="stop1697" />
            </linearGradient>
            <path
               style="fill:url(#SVGID_6_)"
               inkscape:connector-curvature="0"
               class="st10"
               d="m 334.082,103.288 c -8.276,-43.237 -48.096,-82.572 -80.117,-84.752 -14.211,-0.968 -9.847,6.319 -18.739,9.094 -38.321,11.959 -38.906,18.94 -38.906,18.94 81.252,3.819 82.484,84.064 60.724,104.366 6.123,-1.428 12.762,-8.914 18.859,-20.666 -0.732,4.931 -1.36,10.98 -2.274,17.729 -2.788,20.595 0.823,63.614 -58.356,92.405 0,0 32.372,-2.646 48.424,-20.717 -6.528,15.012 -24.441,23.121 -24.441,23.121 13.182,-1.928 47.81,-12.146 69.868,-39.732 24.967,-31.224 32.475,-60.518 24.958,-99.788 z"
               id="path1700" />
            <linearGradient
               id="SVGID_7_"
               gradientUnits="userSpaceOnUse"
               x1="186.6514"
               y1="278.64581"
               x2="296.22369"
               y2="32.542301">
              <stop
                 offset="0"
                 style="stop-color:#29ABE2"
                 id="stop1702" />
              <stop
                 offset="0.7733"
                 style="stop-color:#385AA6"
                 id="stop1704" />
              <stop
                 offset="0.8575"
                 style="stop-color:#414293"
                 id="stop1706" />
              <stop
                 offset="1"
                 style="stop-color:#4E1D75"
                 id="stop1708" />
            </linearGradient>
            <path
               style="fill:url(#SVGID_7_)"
               inkscape:connector-curvature="0"
               class="st11"
               d="m 254.899,182.221 c 0,0 26.396,-7.38 34.902,-21.633 -1.032,16.619 -16.106,33.662 -16.106,33.662 0,0 22.038,-4.46 31.436,-19.968 -1.224,13.994 -18.191,32.907 -18.191,32.907 17.346,-3.113 60.93,-30.645 47.143,-103.901 -8.142,-43.262 -48.096,-82.572 -80.117,-84.752 -14.211,-0.968 -9.847,6.319 -18.739,9.094 -38.322,11.959 -38.907,18.94 -38.907,18.94 81.252,3.819 102.844,46.344 60.724,103.231 6.123,-1.429 8.578,-4.794 13.178,-10.301 0,0.001 2.085,21.781 -15.323,42.721 z"
               id="path1711" />
            <linearGradient
               id="SVGID_8_"
               gradientUnits="userSpaceOnUse"
               x1="138.1748"
               y1="92.033699"
               x2="144.1476"
               y2="95.4683">
              <stop
                 offset="0"
                 style="stop-color:#B0DCD6"
                 id="stop1713" />
              <stop
                 offset="1"
                 style="stop-color:#53ACE0"
                 id="stop1715" />
            </linearGradient>
            <path
               style="fill:url(#SVGID_8_)"
               inkscape:connector-curvature="0"
               class="st12"
               d="m 150.515,85.567 c 0,0 -4.719,3.301 -8.136,2.46 -4.045,-0.993 -4.73,-4.913 -4.73,-4.913 -0.089,0.803 -0.192,1.578 -0.341,2.273 -0.168,0.799 -2.363,2.863 -2.926,8.428 -0.602,5.905 1.615,9.325 3.692,11.724 7.38,-10.792 14.552,-13.452 14.552,-13.452 -2.809,-0.982 -2.111,-6.52 -2.111,-6.52 z"
               id="path1718" />
            <defs
               id="defs1723">
              <filter
                 id="filter1894"
                 filterUnits="userSpaceOnUse"
                 x="252.586"
                 y="18.355"
                 width="14.927"
                 height="6.6290002">
                <feColorMatrix
                   type="matrix"
                   values="1 0 0 0 0  0 1 0 0 0  0 0 1 0 0  0 0 0 1 0"
                   id="feColorMatrix1892" />
              </filter>
            </defs>
            <mask
               maskUnits="userSpaceOnUse"
               x="252.586"
               y="18.355"
               width="14.927"
               height="6.629"
               id="SVGID_9_">
              <g
                 class="st13"
                 id="g1732"
                 style="filter:url(#Adobe_OpacityMaskFilter-0)">
                <radialGradient
                   id="SVGID_10_"
                   cx="244.29021"
                   cy="67.998497"
                   r="51.967499"
                   gradientUnits="userSpaceOnUse">
                  <stop
                     offset="0.868"
                     style="stop-color:#FFFFFF"
                     id="stop1725" />
                  <stop
                     offset="1"
                     style="stop-color:#000000"
                     id="stop1727" />
                </radialGradient>
                <rect
                   style="fill:url(#SVGID_10_)"
                   x="181.201"
                   y="-7.2179999"
                   class="st14"
                   width="100.015"
                   height="93.338997"
                   id="rect1730" />
              </g>
            </mask>
            <g
               class="st15"
               mask="url(#SVGID_9_)"
               id="g1750">
              <g
                 style="opacity:0.6"
                 class="st16"
                 id="g1748">
                <g
                   style="opacity:0.2"
                   class="st17"
                   id="g1746">
                  <linearGradient
                     id="SVGID_11_"
                     gradientUnits="userSpaceOnUse"
                     x1="266.12009"
                     y1="23.0851"
                     x2="254.1465"
                     y2="20.555401">
                    <stop
                       offset="0"
                       style="stop-color:#3092B9"
                       id="stop1735" />
                    <stop
                       offset="0.2199"
                       style="stop-color:#258DB6"
                       id="stop1737" />
                    <stop
                       offset="0.6564"
                       style="stop-color:#1685B1"
                       id="stop1739" />
                    <stop
                       offset="1"
                       style="stop-color:#1082AF"
                       id="stop1741" />
                  </linearGradient>
                  <path
                     style="fill:url(#SVGID_11_)"
                     inkscape:connector-curvature="0"
                     class="st18"
                     d="m 253.42,18.434 c 1.106,-0.287 5.621,0.204 8.584,1.533 2.963,1.329 8.073,3.679 3.986,4.701 -4.088,1.022 -6.438,-0.613 -8.482,-2.351 -2.045,-1.737 -6.848,-3.168 -4.088,-3.883 z"
                     id="path1744" />
                </g>
              </g>
            </g>
            <linearGradient
               id="SVGID_12_"
               gradientUnits="userSpaceOnUse"
               x1="170.69"
               y1="38.0252"
               x2="180.5432"
               y2="77.544296">
              <stop
                 offset="0.0074"
                 style="stop-color:#1398D1;stop-opacity:0"
                 id="stop1752" />
              <stop
                 offset="0.2482"
                 style="stop-color:#1187C2;stop-opacity:0.6197"
                 id="stop1754" />
              <stop
                 offset="0.6422"
                 style="stop-color:#3F6499;stop-opacity:0.71"
                 id="stop1756" />
              <stop
                 offset="1"
                 style="stop-color:#2F4282;stop-opacity:0.5"
                 id="stop1758" />
            </linearGradient>
            <path
               style="fill:url(#SVGID_12_)"
               inkscape:connector-curvature="0"
               class="st19"
               d="m 150.957,84.921 c 0,0 25.888,-42.662 49.292,-54.175 2.173,-1.093 -32.405,9.191 -46.32,24.55 -8.271,9.129 -3.891,27.002 -2.972,29.625 z"
               id="path1761" />
            <path
               style="opacity:0.1;fill:#f2f2f2"
               inkscape:connector-curvature="0"
               class="st20"
               d="m 150.957,84.921 c 0.024,-0.015 0.05,-0.03 0.075,-0.045 6.694,-4.136 18.166,-6.518 21.864,-14.015 14.237,-28.869 27.354,-40.115 27.354,-40.115 -23.405,11.513 -49.293,54.175 -49.293,54.175 z"
               id="path1763" />
            <path
               style="fill:#2f4282"
               inkscape:connector-curvature="0"
               class="st21"
               d="m 153.419,77.118 c 0,0 -4.666,-7.159 2.053,-13.687 3.546,-3.44 8.919,-1.529 9.54,-0.91 2.644,2.622 0.982,8.156 -1.398,11.288 -1.346,1.764 -5.26,4.51 -10.195,3.309 z"
               id="path1765" />
            <linearGradient
               id="SVGID_13_"
               gradientUnits="userSpaceOnUse"
               x1="139.1219"
               y1="41.318001"
               x2="133.5829"
               y2="38.247601"
               gradientTransform="matrix(0.9994,0.0349,-0.0349,0.9994,25.1078,27.037)">
              <stop
                 offset="0"
                 style="stop-color:#F9C21B"
                 id="stop1767" />
              <stop
                 offset="0.1479"
                 style="stop-color:#F3BA1B"
                 id="stop1769" />
              <stop
                 offset="0.3787"
                 style="stop-color:#E3A41B"
                 id="stop1771" />
              <stop
                 offset="0.6634"
                 style="stop-color:#C9801C"
                 id="stop1773" />
              <stop
                 offset="0.9884"
                 style="stop-color:#A44E1C"
                 id="stop1775" />
              <stop
                 offset="1"
                 style="stop-color:#A34C1C"
                 id="stop1777" />
            </linearGradient>
            <path
               style="fill:url(#SVGID_13_)"
               inkscape:connector-curvature="0"
               class="st22"
               d="m 156.093,76.674 c 0,0 -3.224,-4.949 1.421,-9.459 2.446,-2.376 6.161,-1.056 6.592,-0.63 1.826,1.812 0.676,5.637 -0.968,7.8 -0.927,1.223 -3.634,3.119 -7.045,2.289 z"
               id="path1780" />
            <path
               inkscape:connector-curvature="0"
               d="m 162.529,71.393 c -0.072,1.978 -1.746,3.522 -3.738,3.454 -1.996,-0.069 -3.558,-1.726 -3.487,-3.704 0.071,-1.977 1.744,-3.521 3.741,-3.453 1.993,0.069 3.553,1.727 3.484,3.703 z"
               id="path1782" />
          </g>
          <circle
             style="fill:#ffffff"
             class="st24"
             cx="156.631"
             cy="70.287003"
             r="1.136"
             id="circle1786" />
          <linearGradient
             id="SVGID_14_"
             gradientUnits="userSpaceOnUse"
             x1="296.11749"
             y1="130.1391"
             x2="259.33591"
             y2="47.526402">
            <stop
               offset="0"
               style="stop-color:#409EC3"
               id="stop1788" />
            <stop
               offset="0.62"
               style="stop-color:#2061BD"
               id="stop1790" />
          </linearGradient>
          <path
             style="fill:url(#SVGID_14_)"
             inkscape:connector-curvature="0"
             class="st23"
             d="M 318.412,65.01 C 300.69,38.034 286.65,31.18 286.65,31.18 c 0,0 0.645,19.65 10.484,29.128 1.124,1.083 -11.774,-8.432 -11.774,-8.432 0,0 -2.758,9.076 3.562,19.51 -1.836,-2.439 -3.051,-3.363 -3.051,-3.363 0,0 -11.908,5.491 -15.423,13.109 -1.815,-3.426 -3.176,-5.444 -3.176,-5.444 0,0 -8.236,16.437 -7.201,35.495 1.684,30.988 -5.803,42.404 -5.803,42.404 0,0 20.057,-7.695 29.676,-32.468 3.974,10.533 -0.121,21.619 -0.121,21.619 0,0 16.206,-12.109 19.691,-34.18 3.863,6.23 2.727,18.664 2.727,18.664 0,0 10.344,-14.402 10.596,-30.086 4.794,3.343 5.235,16.399 5.235,16.399 0,0 15.336,-19.607 -3.66,-48.525 z"
             id="path1793" />
          <linearGradient
             id="SVGID_15_"
             gradientUnits="userSpaceOnUse"
             x1="266.6665"
             y1="103.061"
             x2="240.3131"
             y2="21.9536">
            <stop
               offset="0"
               style="stop-color:#14B2DA"
               id="stop1795" />
            <stop
               offset="0.4028"
               style="stop-color:#297CCC"
               id="stop1797" />
            <stop
               offset="0.5077"
               style="stop-color:#256FC5"
               id="stop1799" />
            <stop
               offset="0.6492"
               style="stop-color:#2164BF"
               id="stop1801" />
            <stop
               offset="0.8162"
               style="stop-color:#2061BD"
               id="stop1803" />
            <stop
               offset="0.9835"
               style="stop-color:#2061BD"
               id="stop1805" />
          </linearGradient>
          <path
             style="fill:url(#SVGID_15_)"
             inkscape:connector-curvature="0"
             class="st25"
             d="m 301.188,46.158 c -4.631,-8.63 -12.803,-14.13 -19.986,-18.582 -17.909,-11.105 -29.427,-12.665 -29.427,-12.665 0,0 -16.528,3.074 -13.689,7.672 0.146,0.236 0.487,0.535 0.968,0.877 -14.498,-6.678 -22.722,8.677 -22.722,8.677 -8.284,-0.503 -18.371,3.575 -21.312,14.499 -0.305,1.134 3.711,0.496 5.777,0.945 12.079,2.626 23.45,8.32 28.675,11.134 12.154,6.548 19.365,17.451 23.528,25.629 5.037,9.894 7.094,27.304 7.094,27.304 0,0 13.253,-18.205 10.086,-27.552 5.249,3.26 6.285,14.891 6.285,14.891 0,0 8.835,-13.838 6.223,-25.891 6.815,4.153 7.042,12.601 7.042,12.601 0,0 6.939,-9.631 3.803,-25.427 6.858,5.453 8.293,12.517 8.293,12.517 0,0 5.606,-14.993 -0.638,-26.629 z"
             id="path1808" />
        </g>
      </g>
      <circle
         r="0.66560632"
         cy="275.3136"
         cx="120.99039"
         id="path2175"
         style="opacity:1;fill:none;fill-opacity:1;fill-rule:nonzero;stroke:#363959;stroke-width:0.11330096;stroke-linecap:square;stroke-linejoin:miter;stroke-miterlimit:4;stroke-dasharray:none;stroke-opacity:1;paint-order:markers stroke fill" />
      <text
         id="text1040"
         y="275.68942"
         x="120.61948"
         style="font-style:normal;font-variant:normal;font-weight:bold;font-stretch:normal;font-size:1.09093726px;line-height:1.25;font-family:Montserrat;-inkscape-font-specification:'Montserrat Bold';text-align:start;text-anchor:start;opacity:1;fill:#363959;fill-opacity:1;fill-rule:nonzero;stroke:none;stroke-width:0.14354439;stroke-linecap:square;stroke-linejoin:miter;stroke-miterlimit:4;stroke-dasharray:none;stroke-opacity:1;paint-order:markers stroke fill"
         xml:space="preserve"><tspan
           style="font-style:normal;font-variant:normal;font-weight:normal;font-stretch:normal;font-family:'Fira Sans';-inkscape-font-specification:'Fira Sans';stroke-width:0.14354439"
           y="275.68942"
           x="120.61948"
           id="tspan1038"
           sodipodi:role="line">R</tspan></text>
    </g>
  </g>
  <style
     id="style846"
     type="text/css">
	.st0{fill:#363959;}
	.st1{fill:url(#SVGID_1_);}
	.st2{fill:#FBFBFB;}
	.st3{fill:#999999;}
	.st4{fill:#F8F8F8;}
	.st5{fill:url(#SVGID_2_);}
	.st6{fill:url(#SVGID_3_);}
	.st7{fill:url(#SVGID_4_);}
	.st8{fill:#3F6499;}
	.st9{fill:url(#SVGID_5_);}
	.st10{fill:url(#SVGID_6_);}
	.st11{fill:url(#SVGID_7_);}
	.st12{fill:url(#SVGID_8_);}
	.st13{filter:url(#Adobe_OpacityMaskFilter);}
	.st14{fill:url(#SVGID_10_);}
	.st15{mask:url(#SVGID_9_);}
	.st16{opacity:0.6;}
	.st17{opacity:0.2;}
	.st18{fill:url(#SVGID_11_);}
	.st19{fill:url(#SVGID_12_);}
	.st20{opacity:0.1;fill:#F2F2F2;}
	.st21{fill:#2F4282;}
	.st22{fill:url(#SVGID_13_);}
	.st23{fill:url(#SVGID_14_);}
	.st24{fill:#FFFFFF;}
	.st25{fill:url(#SVGID_15_);}
	.st26{fill:url(#SVGID_16_);}
	.st27{fill:url(#SVGID_17_);}
	.st28{fill:url(#SVGID_18_);}
	.st29{fill:url(#SVGID_19_);}
	.st30{fill:url(#SVGID_20_);}
	.st31{fill:url(#SVGID_21_);}
	.st32{fill:url(#SVGID_22_);}
	.st33{fill:url(#SVGID_23_);}
	.st34{fill:url(#SVGID_24_);}
	.st35{filter:url(#Adobe_OpacityMaskFilter_1_);}
	.st36{fill:url(#SVGID_26_);}
	.st37{mask:url(#SVGID_25_);}
	.st38{fill:url(#SVGID_27_);}
	.st39{fill:url(#SVGID_28_);}
	.st40{fill:url(#SVGID_29_);}
	.st41{fill:url(#SVGID_30_);}
	.st42{fill:url(#SVGID_31_);}
	.st43{fill:url(#SVGID_32_);}
	.st44{fill:url(#SVGID_33_);}
	.st45{fill:url(#SVGID_34_);}
	.st46{fill:url(#SVGID_35_);}
	.st47{fill:url(#SVGID_36_);}
	.st48{fill:url(#SVGID_37_);}
	.st49{fill:url(#SVGID_38_);}
	.st50{fill:url(#SVGID_39_);}
	.st51{fill:url(#SVGID_40_);}
	.st52{filter:url(#Adobe_OpacityMaskFilter_2_);}
	.st53{fill:url(#SVGID_42_);}
	.st54{mask:url(#SVGID_41_);}
	.st55{fill:url(#SVGID_43_);}
	.st56{fill:url(#SVGID_44_);}
	.st57{fill:url(#SVGID_45_);}
	.st58{fill:url(#SVGID_46_);}
	.st59{fill:url(#SVGID_47_);}
	.st60{fill:url(#SVGID_48_);}
</style>
  <style
     id="style1178"
     type="text/css">
	.st0{fill:#363959;}
	.st1{fill:url(#SVGID_1_);}
	.st2{fill:#FBFBFB;}
	.st3{fill:#999999;}
	.st4{fill:#F8F8F8;}
	.st5{fill:url(#SVGID_2_);}
	.st6{fill:url(#SVGID_3_);}
	.st7{fill:url(#SVGID_4_);}
	.st8{fill:#3F6499;}
	.st9{fill:url(#SVGID_5_);}
	.st10{fill:url(#SVGID_6_);}
	.st11{fill:url(#SVGID_7_);}
	.st12{fill:url(#SVGID_8_);}
	.st13{filter:url(#Adobe_OpacityMaskFilter);}
	.st14{fill:url(#SVGID_10_);}
	.st15{mask:url(#SVGID_9_);}
	.st16{opacity:0.6;}
	.st17{opacity:0.2;}
	.st18{fill:url(#SVGID_11_);}
	.st19{fill:url(#SVGID_12_);}
	.st20{opacity:0.1;fill:#F2F2F2;}
	.st21{fill:#2F4282;}
	.st22{fill:url(#SVGID_13_);}
	.st23{fill:url(#SVGID_14_);}
	.st24{fill:#FFFFFF;}
	.st25{fill:url(#SVGID_15_);}
	.st26{fill:url(#SVGID_16_);}
	.st27{fill:url(#SVGID_17_);}
	.st28{fill:url(#SVGID_18_);}
	.st29{fill:url(#SVGID_19_);}
	.st30{fill:url(#SVGID_20_);}
	.st31{fill:url(#SVGID_21_);}
	.st32{fill:url(#SVGID_22_);}
	.st33{fill:url(#SVGID_23_);}
	.st34{fill:url(#SVGID_24_);}
	.st35{filter:url(#Adobe_OpacityMaskFilter_1_);}
	.st36{fill:url(#SVGID_26_);}
	.st37{mask:url(#SVGID_25_);}
	.st38{fill:url(#SVGID_27_);}
	.st39{fill:url(#SVGID_28_);}
	.st40{fill:url(#SVGID_29_);}
	.st41{fill:url(#SVGID_30_);}
	.st42{fill:url(#SVGID_31_);}
	.st43{fill:url(#SVGID_32_);}
	.st44{fill:url(#SVGID_33_);}
	.st45{fill:url(#SVGID_34_);}
	.st46{fill:url(#SVGID_35_);}
	.st47{fill:url(#SVGID_36_);}
	.st48{fill:url(#SVGID_37_);}
	.st49{fill:url(#SVGID_38_);}
	.st50{fill:url(#SVGID_39_);}
	.st51{fill:url(#SVGID_40_);}
	.st52{filter:url(#Adobe_OpacityMaskFilter_2_);}
	.st53{fill:url(#SVGID_42_);}
	.st54{mask:url(#SVGID_41_);}
	.st55{fill:url(#SVGID_43_);}
	.st56{fill:url(#SVGID_44_);}
	.st57{fill:url(#SVGID_45_);}
	.st58{fill:url(#SVGID_46_);}
	.st59{fill:url(#SVGID_47_);}
	.st60{fill:url(#SVGID_48_);}
</style>
  <style
     id="style1590"
     type="text/css">
	.st0{fill:#363959;}
	.st1{fill:url(#SVGID_1_);}
	.st2{fill:#FBFBFB;}
	.st3{fill:#999999;}
	.st4{fill:#F8F8F8;}
	.st5{fill:url(#SVGID_2_);}
	.st6{fill:url(#SVGID_3_);}
	.st7{fill:url(#SVGID_4_);}
	.st8{fill:#3F6499;}
	.st9{fill:url(#SVGID_5_);}
	.st10{fill:url(#SVGID_6_);}
	.st11{fill:url(#SVGID_7_);}
	.st12{fill:url(#SVGID_8_);}
	.st13{filter:url(#Adobe_OpacityMaskFilter);}
	.st14{fill:url(#SVGID_10_);}
	.st15{mask:url(#SVGID_9_);}
	.st16{opacity:0.6;}
	.st17{opacity:0.2;}
	.st18{fill:url(#SVGID_11_);}
	.st19{fill:url(#SVGID_12_);}
	.st20{opacity:0.1;fill:#F2F2F2;}
	.st21{fill:#2F4282;}
	.st22{fill:url(#SVGID_13_);}
	.st23{fill:url(#SVGID_14_);}
	.st24{fill:#FFFFFF;}
	.st25{fill:url(#SVGID_15_);}
	.st26{fill:url(#SVGID_16_);}
	.st27{fill:url(#SVGID_17_);}
	.st28{fill:url(#SVGID_18_);}
	.st29{fill:url(#SVGID_19_);}
	.st30{fill:url(#SVGID_20_);}
	.st31{fill:url(#SVGID_21_);}
	.st32{fill:url(#SVGID_22_);}
	.st33{fill:url(#SVGID_23_);}
	.st34{fill:url(#SVGID_24_);}
	.st35{filter:url(#Adobe_OpacityMaskFilter_1_);}
	.st36{fill:url(#SVGID_26_);}
	.st37{mask:url(#SVGID_25_);}
	.st38{fill:url(#SVGID_27_);}
	.st39{fill:url(#SVGID_28_);}
	.st40{fill:url(#SVGID_29_);}
	.st41{fill:url(#SVGID_30_);}
	.st42{fill:url(#SVGID_31_);}
	.st43{fill:url(#SVGID_32_);}
	.st44{fill:url(#SVGID_33_);}
	.st45{fill:url(#SVGID_34_);}
	.st46{fill:url(#SVGID_35_);}
	.st47{fill:url(#SVGID_36_);}
	.st48{fill:url(#SVGID_37_);}
	.st49{fill:url(#SVGID_38_);}
	.st50{fill:url(#SVGID_39_);}
	.st51{fill:url(#SVGID_40_);}
	.st52{filter:url(#Adobe_OpacityMaskFilter_2_);}
	.st53{fill:url(#SVGID_42_);}
	.st54{mask:url(#SVGID_41_);}
	.st55{fill:url(#SVGID_43_);}
	.st56{fill:url(#SVGID_44_);}
	.st57{fill:url(#SVGID_45_);}
	.st58{fill:url(#SVGID_46_);}
	.st59{fill:url(#SVGID_47_);}
	.st60{fill:url(#SVGID_48_);}
</style>
</svg>
